<svg xmlns="http://www.w3.org/2000/svg" viewBox="0 0 32 32" id="Elephant--Streamline-Twemoji" height="32" width="32">
  <desc>
    Elephant Streamline Emoji: https://streamlinehq.com
  </desc>
  <path fill="#99aab5" d="M30.33235555555555 12.735377777777776C29.579733333333333 6.376177777777777 25.341688888888886 3.634666666666667 18.197599999999998 3.634666666666667c-0.3406222222222222 0 -0.6647111111111111 0.014844444444444443 -0.9922666666666666 0.027022222222222222 -0.011288888888888888 -0.00871111111111111 -0.01911111111111111 -0.01831111111111111 -0.030488888888888885 -0.027022222222222222C13.085777777777778 0.5674666666666666 3.8831999999999995 1.5901333333333332 1.8395555555555556 4.657422222222222c-2.835555555555555 4.253688888888889 -1.0227555555555556 19.42613333333333 0 21.46977777777778 1.0217777777777777 2.0472 4.089066666666667 3.0672888888888887 5.1117333333333335 2.0472 1.0227555555555556 -1.0244444444444445 0 -1.0244444444444445 -1.0217777777777777 -3.0672888888888887 -0.7405333333333333 -1.4817777777777776 -0.4059555555555555 -5.103911111111111 0.22213333333333332 -7.379288888888889 0.024355555555555554 0.1463111111111111 0.0592 0.2805333333333333 0.08711111111111111 0.42337777777777774 0.3397333333333333 2.5009777777777775 1.7360888888888888 6.456799999999999 1.7360888888888888 8.488266666666666 0 3.104711111111111 1.8311111111111111 3.5776888888888885 4.089155555555555 3.5776888888888885 2.2587555555555556 0 4.0898666666666665 -0.4729777777777778 4.0898666666666665 -3.5776888888888885 0 -0.20906666666666665 -0.006933333333333333 -0.4033777777777777 -0.0104 -0.6054222222222222 0.6594666666666666 0.055733333333333336 1.3371555555555554 0.09315555555555556 2.054933333333333 0.09315555555555556 0.43297777777777774 0 0.851111111111111 -0.013955555555555554 1.2614222222222222 -0.03395555555555555 -0.0034666666666666665 0.18204444444444445 -0.011288888888888888 0.3571555555555555 -0.011288888888888888 0.5462222222222223 0 3.104711111111111 1.8319999999999999 3.5776888888888885 4.089066666666667 3.5776888888888885 2.258844444444444 0 4.089955555555556 -0.4729777777777778 4.089955555555556 -3.5776888888888885 0 -1.5688888888888888 1.0383999999999998 -4.0289777777777775 1.7761777777777776 -6.082222222222222 0.13857777777777777 -0.30835555555555555 0.25351111111111113 -0.6376888888888889 0.3658666666666667 -0.9730666666666666 0.10284444444444443 1.1385777777777777 0.1681777777777778 2.357244444444444 0.1681777777777778 3.6639999999999997 0 0.4816888888888889 0.38942222222222217 0.8711111111111111 0.8711111111111111 0.8711111111111111s0.8711111111111111 -0.38942222222222217 0.8711111111111111 -0.8711111111111111c0 -4.4889777777777775 -0.6716444444444445 -8.056177777777778 -1.3476444444444444 -10.5128Z" stroke-width="0.8889"></path>
  <path fill="#66757f" d="M17.175733333333334 3.634666666666667s3.1796444444444445 4.804266666666666 0.5662222222222222 9.15991111111111c-2.6133333333333333 4.355644444444445 -6.827911111111111 4.355644444444445 -9.5824 4.355644444444445 -1.7422222222222221 0 -0.8711111111111111 1.742311111111111 0 1.742311111111111 1.2318222222222222 0 7.3131555555555545 1.0549333333333333 10.45351111111111 -5.226755555555555 2.6134222222222223 -5.226844444444445 -1.4373333333333334 -10.03111111111111 -1.4373333333333334 -10.03111111111111Z" stroke-width="0.8889"></path>
  <path fill="#292f33" d="M4.675022222222222 11.48791111111111c-0.0025777777777777774 1.0058666666666665 1.084711111111111 1.6374222222222221 1.9571555555555555 1.136711111111111 0.4069333333333333 -0.23351111111111109 0.657511111111111 -0.6674666666666667 0.6562666666666666 -1.136711111111111 0.0025777777777777774 -1.0058666666666665 -1.0846222222222222 -1.6374222222222221 -1.9570666666666667 -1.136711111111111 -0.4070222222222222 0.23359999999999997 -0.657511111111111 0.6674666666666667 -0.6563555555555555 1.136711111111111" stroke-width="0.8889"></path>
</svg>